<mxfile host="app.diagrams.net" modified="2023-04-25T22:31:57.793Z" agent="Mozilla/5.0 (Windows NT 10.0; Win64; x64) AppleWebKit/537.36 (KHTML, like Gecko) Chrome/112.0.0.0 Safari/537.36" version="21.2.2" etag="4WRjAz9RZzh-Z1A17Wnx" type="github">
  <diagram name="PÃ¡gina-1" id="HAbBsCGLV03ulmIQa9T1">
    <mxGraphModel>
      <root>
        <mxCell id="0" />
        <mxCell id="1" parent="0" />
      </root>
    </mxGraphModel>
  </diagram>
</mxfile>
